<svg width="124" height="36" viewBox="0 0 124 36" fill="none" xmlns="http://www.w3.org/2000/svg">
<path d="M17.4797 0C27.432 0 35.5 8.05888 35.5 18C35.5 27.9411 27.432 36 17.4797 36C10.4149 36 4.2999 31.9391 1.34607 26.0267C0.472189 24.1974 0 22.142 0 19.98C0 12.2259 6.29301 5.94 14.0558 5.94C19.7375 5.94 24.6316 9.3074 26.8475 14.1531C26.9536 14.3852 26.6103 14.5947 26.4196 14.4248C25.1457 13.2899 23.4658 12.6 21.6244 12.6C17.6434 12.6 14.4162 15.8236 14.4162 19.8C14.4162 20.1048 14.4354 20.4052 14.4722 20.7V20.7035C15.3173 25.92 19.3842 28.53 24.1472 28.53C28.9103 28.53 32.8863 25.1739 33.8391 20.7C33.9834 19.8213 34.0584 18.9194 34.0584 18C34.0584 8.85417 26.6358 1.44 17.4797 1.44C11.9613 1.44 7.07268 4.1331 4.05919 8.27532C3.99054 8.36969 3.91156 8.4562 3.82387 8.53326C2.91472 9.33215 2.1 10.2358 1.39864 11.2252C1.20939 11.4922 0.749923 11.2904 0.877582 10.9891C3.61425 4.53104 10.0172 0 17.4797 0Z" fill="url(#paint0_linear_4906_1508)"/>
<path d="M45.8015 31.2506C45.8015 31.5268 46.0259 31.7506 46.3028 31.7506H49.6582C49.935 31.7506 50.1595 31.5268 50.1595 31.2506V24.7871C50.1595 24.7393 50.221 24.7181 50.2517 24.7547C50.6315 25.2077 51.1273 25.572 51.7392 25.8477C52.4111 26.1372 53.201 26.2819 54.1089 26.2819C55.7976 26.2819 57.1685 25.6713 58.2217 24.45C59.2749 23.2196 59.8015 21.5732 59.8015 19.5105V19.0763C59.8015 16.9865 59.2749 15.3446 58.2217 14.1504C57.1776 12.9562 55.7931 12.3592 54.068 12.3592C53.1692 12.3592 52.3612 12.5401 51.6439 12.902C50.9344 13.251 50.4203 13.6886 50.1017 14.2146C50.0952 14.2253 50.0837 14.2318 50.0713 14.2318C50.0521 14.2318 50.0365 14.2166 50.036 14.1975L50.0088 13.1582C50.0017 12.8873 49.7794 12.6713 49.5077 12.6713H46.3028C46.0259 12.6713 45.8015 12.8951 45.8015 13.1713V31.2506ZM50.6095 22.1847C50.2394 21.7399 50.1595 21.1403 50.1595 20.5623V18.1508C50.1595 17.5262 50.2567 16.8781 50.6734 16.4119C50.7999 16.2704 50.9418 16.1362 51.0992 16.0095C51.535 15.6657 52.0752 15.4938 52.7198 15.4938C53.6095 15.4938 54.2723 15.7969 54.7081 16.403C55.1439 17.0001 55.3618 17.8369 55.3618 18.9134V19.7005C55.3618 20.768 55.1439 21.6184 54.7081 22.2517C54.2814 22.8759 53.6186 23.188 52.7198 23.188C52.1024 23.188 51.5667 23.0161 51.1128 22.6723C50.9215 22.5206 50.7538 22.3581 50.6095 22.1847Z" fill="#333333"/>
<path d="M61.9805 25.5105C61.9805 25.7867 62.2049 26.0105 62.4818 26.0105H65.9189C66.1957 26.0105 66.4202 25.7867 66.4202 25.5105V18.1591C66.4202 17.9322 66.4676 17.7057 66.5842 17.5109C66.8592 17.0511 67.2177 16.6682 67.6595 16.3623C68.1951 15.9914 68.7671 15.8059 69.3754 15.8059C69.6387 15.8059 69.8748 15.8195 70.0836 15.8466C70.166 15.8569 70.2444 15.8691 70.319 15.8832C70.487 15.9151 70.6556 15.7926 70.6556 15.622V12.8742C70.6556 12.6697 70.5287 12.4893 70.3273 12.4509C70.2855 12.443 70.2406 12.435 70.1926 12.427C69.9747 12.3908 69.7477 12.3727 69.5116 12.3727C68.8307 12.3727 68.2178 12.5582 67.6731 12.9291C67.1327 13.2971 66.7039 13.7585 66.3869 14.3135C66.3822 14.3217 66.3734 14.3268 66.364 14.3268C66.3497 14.3268 66.3381 14.3156 66.3376 14.3014L66.2999 13.1549C66.291 12.8853 66.0693 12.6713 65.7989 12.6713H62.4818C62.2049 12.6713 61.9805 12.8951 61.9805 13.1713V25.5105Z" fill="#333333"/>
<path d="M72.3715 25.5105C72.3715 25.7867 72.596 26.0105 72.8728 26.0105H76.2963C76.5732 26.0105 76.7976 25.7867 76.7976 25.5105V13.1713C76.7976 12.8951 76.5732 12.6713 76.2963 12.6713H72.8728C72.596 12.6713 72.3715 12.8951 72.3715 13.1713V25.5105ZM72.0856 8.47817C72.0856 9.11143 72.2989 9.64971 72.7256 10.093C73.1614 10.5363 73.7788 10.7579 74.5778 10.7579C75.3767 10.7579 75.9941 10.5363 76.4299 10.093C76.8657 9.64971 77.0836 9.11143 77.0836 8.47817C77.0836 7.83586 76.8703 7.29758 76.4435 6.86335C76.0168 6.42911 75.3994 6.21199 74.5914 6.21199C73.7924 6.21199 73.175 6.42911 72.7392 6.86335C72.3035 7.29758 72.0856 7.83586 72.0856 8.47817Z" fill="#333333"/>
<path d="M79.712 25.5105C79.712 25.7867 79.9364 26.0105 80.2133 26.0105H83.5823C83.8592 26.0105 84.0836 25.7867 84.0836 25.5105V17.3529C84.3106 16.8192 84.6193 16.3985 85.0097 16.0909C85.4001 15.7833 85.8586 15.6295 86.3852 15.6295C86.9935 15.6295 87.4565 15.8014 87.7743 16.1452C88.1011 16.489 88.2646 17.0544 88.2646 17.8414V25.5105C88.2646 25.7867 88.489 26.0105 88.7658 26.0105H92.1485C92.4253 26.0105 92.6498 25.7867 92.6498 25.5105V17.3393C92.8767 16.8237 93.1854 16.4121 93.5758 16.1045C93.9753 15.7878 94.4384 15.6295 94.9649 15.6295C95.5732 15.6386 96.0363 15.815 96.3541 16.1588C96.6718 16.4935 96.8307 17.0453 96.8307 17.8143V25.5105C96.8307 25.7867 97.0551 26.0105 97.332 26.0105H100.701C100.978 26.0105 101.202 25.7867 101.202 25.5105V17.5157C101.202 15.6612 100.794 14.3404 99.9766 13.5533C99.1686 12.7572 98.0927 12.3592 96.749 12.3592C95.7866 12.3592 94.8923 12.5627 94.0661 12.9698C93.249 13.3769 92.5998 13.9604 92.1186 14.7203H92.0778C91.7873 13.9514 91.2924 13.3679 90.5933 12.9698C89.9033 12.5627 89.0771 12.3592 88.1147 12.3592C87.2341 12.3592 86.4397 12.5401 85.7315 12.902C85.0324 13.2638 84.4649 13.7659 84.0291 14.4082H83.9747L83.9453 13.1595C83.9389 12.8881 83.7164 12.6713 83.4442 12.6713H80.2133C79.9364 12.6713 79.712 12.8951 79.712 13.1713V25.5105Z" fill="#333333"/>
<path d="M103.313 22.1295C103.313 23.4865 103.74 24.5088 104.593 25.1963C105.456 25.8839 106.577 26.2276 107.957 26.2276C109.119 26.2276 110.082 26.0241 110.844 25.617C111.616 25.2099 112.152 24.753 112.451 24.2464C112.479 24.5721 112.533 24.8933 112.615 25.2099C112.671 25.4064 112.733 25.5838 112.8 25.742C112.871 25.911 113.043 26.0105 113.226 26.0105H117.027C117.14 26.0105 117.232 25.9194 117.232 25.807C117.05 25.4542 116.909 25.0335 116.809 24.545C116.719 24.0474 116.673 23.5272 116.673 22.9844V17.0137C116.673 15.3762 116.151 14.1821 115.107 13.4312C114.072 12.6803 112.565 12.3049 110.586 12.3049C108.624 12.3049 107.054 12.6984 105.874 13.4855C104.702 14.2635 104.117 15.2722 104.117 16.5116V16.5338C104.117 16.6715 104.228 16.7833 104.367 16.7838L107.998 16.7957C108.133 16.7962 108.243 16.6871 108.243 16.5523C108.243 16.0728 108.411 15.6883 108.747 15.3988C109.083 15.1093 109.61 14.9646 110.327 14.9646C111.044 14.9646 111.553 15.1365 111.852 15.4803C112.152 15.824 112.302 16.2945 112.302 16.8915V17.6922H109.305C107.535 17.7012 106.091 18.0902 104.975 18.8592C103.867 19.6281 103.313 20.7183 103.313 22.1295ZM107.658 21.7903C107.658 21.1932 107.875 20.7544 108.311 20.474C108.756 20.1935 109.442 20.0533 110.368 20.0533H112.302V21.1932C112.302 21.8355 112.038 22.4009 111.512 22.8894C110.994 23.3689 110.372 23.6086 109.646 23.6086C108.974 23.6086 108.475 23.4503 108.148 23.1337C107.821 22.808 107.658 22.3602 107.658 21.7903Z" fill="#333333"/>
<path d="M119.601 25.5105C119.601 25.7867 119.826 26.0105 120.102 26.0105H123.499C123.776 26.0105 124 25.7867 124 25.5105V6.25061C124 5.97447 123.776 5.75061 123.499 5.75061H120.102C119.826 5.75061 119.601 5.97447 119.601 6.25061V25.5105Z" fill="#333333"/>
<defs>
<linearGradient id="paint0_linear_4906_1508" x1="1.07109" y1="0.504673" x2="36.3982" y2="35.8716" gradientUnits="userSpaceOnUse">
<stop stop-color="#00E0FF"/>
<stop offset="0.481323" stop-color="#0090F8"/>
<stop offset="1" stop-color="#2554ED"/>
</linearGradient>
</defs>
</svg>
