<svg width="22" height="17" viewBox="0 0 22 17" fill="none" xmlns="http://www.w3.org/2000/svg">
<path fill-rule="evenodd" clip-rule="evenodd" d="M3.5 10C5.433 10 7 11.567 7 13.5C7 15.433 5.433 17 3.5 17C1.567 17 0 15.433 0 13.5C0 11.567 1.567 10 3.5 10ZM3.5 11.5C2.39543 11.5 1.5 12.3954 1.5 13.5C1.5 14.6046 2.39543 15.5 3.5 15.5C4.60457 15.5 5.5 14.6046 5.5 13.5C5.5 12.3954 4.60457 11.5 3.5 11.5Z" fill="#AAAAAA"/>
<path d="M21.25 12.75C21.6642 12.75 22 13.0858 22 13.5C22 13.9142 21.6642 14.25 21.25 14.25H10C9.58579 14.25 9.25 13.9142 9.25 13.5C9.25 13.0858 9.58579 12.75 10 12.75H21.25Z" fill="#AAAAAA"/>
<path fill-rule="evenodd" clip-rule="evenodd" d="M3.5 0C5.433 0 7 1.567 7 3.5C7 5.433 5.433 7 3.5 7C1.567 7 0 5.433 0 3.5C0 1.567 1.567 0 3.5 0ZM3.5 1.5C2.39543 1.5 1.5 2.39543 1.5 3.5C1.5 4.60457 2.39543 5.5 3.5 5.5C4.60457 5.5 5.5 4.60457 5.5 3.5C5.5 2.39543 4.60457 1.5 3.5 1.5Z" fill="#AAAAAA"/>
<path d="M21.25 2.75C21.6642 2.75 22 3.08579 22 3.5C22 3.91421 21.6642 4.25 21.25 4.25H10C9.58579 4.25 9.25 3.91421 9.25 3.5C9.25 3.08579 9.58579 2.75 10 2.75H21.25Z" fill="#AAAAAA"/>
</svg>
