<svg width="16" height="16" viewBox="0 0 16 16" fill="none" xmlns="http://www.w3.org/2000/svg">
<path d="M7.87817 0C12.3637 0 16 3.58172 16 8C16 12.4183 12.3637 16 7.87817 16C4.69406 16 1.93798 14.1951 0.606678 11.5674C0.212818 10.7544 0 9.84087 0 8.88C0 5.43374 2.83629 2.64 6.33503 2.64C8.89579 2.64 11.1016 4.13662 12.1003 6.29027C12.1481 6.39343 11.9934 6.48652 11.9074 6.41103C11.3333 5.90661 10.5761 5.6 9.74619 5.6C7.95197 5.6 6.49746 7.03269 6.49746 8.8C6.49746 8.93547 6.50609 9.06896 6.52268 9.2V9.20156C6.90355 11.52 8.73653 12.68 10.8832 12.68C13.03 12.68 14.822 11.1884 15.2514 9.2C15.3164 8.80949 15.3503 8.40863 15.3503 8C15.3503 3.93518 12.0049 0.64 7.87817 0.64C5.39103 0.64 3.18769 1.83693 1.8295 3.67792C1.79855 3.71986 1.76296 3.75831 1.72344 3.79256C1.31368 4.14762 0.946478 4.54922 0.630373 4.98897C0.545078 5.10763 0.337993 5.01794 0.39553 4.88405C1.62896 2.01379 4.51478 0 7.87817 0Z" fill="url(#paint0_linear_4870_11105)"/>
<defs>
<linearGradient id="paint0_linear_4870_11105" x1="0.482745" y1="0.224299" x2="16.1819" y2="16.1625" gradientUnits="userSpaceOnUse">
<stop stop-color="#00E0FF"/>
<stop offset="0.481323" stop-color="#0090F8"/>
<stop offset="1" stop-color="#2554ED"/>
</linearGradient>
</defs>
</svg>
